<?xml version="1.0" encoding="UTF-8"?>
<svg id="Layer_1" xmlns="http://www.w3.org/2000/svg" version="1.1" viewBox="0 0 1000 1000">
  <!-- Generator: Adobe Illustrator 30.1.0, SVG Export Plug-In . SVG Version: 2.1.1 Build 136)  -->
  <polygon points="322.35 564.12 241.18 423.05 299.49 389.53 400.33 563.98 322.35 564.12"/>
  <polygon points="220.84 564.33 174.49 484.37 232.76 450.73 298.09 563.92 220.84 564.33"/>
  <path d="M553.47,526.98l-1.39-4.76c-15.2,9.55-34.2,8.4-47.68-3.12-13.3-11.37-18.12-30.45-10.13-46.91,10.51-21.63,36.98-28.93,58.21-16l.26-31.26,18.79.07v101.63s-18.05.35-18.05.35ZM552.56,489.36c.14-14.33-13.09-24.2-25.56-21.88-13.34,2.48-21.87,15.89-17.14,28.71,3.74,10.13,14.02,15.89,24.32,14.19,9.62-1.58,18.26-9.85,18.37-21.03Z"/>
  <path d="M671.55,526.89c-1.22.01-2.32-3.35-2.57-4.57-15.9,9.67-35.33,8.17-48.67-4.07-13.14-12.06-17.18-31.74-8.1-48.06,11.31-20.31,36.77-26.41,57.21-14l.3-31.37,18.44.08-.04,101.84-16.57.14ZM643.91,467.53c-12.67,2.27-20.41,14.61-17.6,26.38,2.62,10.98,13.7,18.71,25.37,16.38,11.3-2.26,19.73-13.2,17.5-24.97-2.11-11.13-12.85-20.01-25.27-17.79Z"/>
  <path d="M483.83,526.69l-18.27.22-.87-4.66c-15.29,9.51-34.3,8.38-47.67-3.02-13.39-11.41-18.16-30.23-10.46-46.63,10.42-22.19,37.46-29.17,58.15-16.53l1.1-5.6,17.96.05.05,76.18ZM465.09,488.3c-.53-13.35-12.46-22.33-24.29-21.02-12.1,1.34-21.48,12.66-19.37,25.16,1.96,11.64,12.75,19.33,23.93,18.12s20.21-10.05,19.73-22.26Z"/>
  <path d="M775.33,526.62l-18.12.32-1.64-4.48c-15.72,9.76-35.26,7.77-48.34-4.48-13.49-12.63-16.92-32.83-7.11-49.06,11.69-19.35,36.57-24.63,55.65-13.04l1.22-5.45,18.33.18.02,76.02ZM732,467.4c-12.54,1.76-20.62,13.31-18.86,24.77,1.77,11.5,12.7,19.85,24.26,18.36,11.71-1.51,20.35-12.17,18.85-24.13-1.4-11.19-11.66-20.77-24.26-19Z"/>
  <path d="M836.01,525.43c-11.91,4.3-24.44,4.47-35.81.25-10.04-3.73-16.92-11.9-17.41-23.16l19.72-.03c.61,6.81,4.86,10.18,10.61,11.39,5.32,1.11,10.93.94,15.26-2.72,1.57-1.33,2.85-4.68,2.5-6.49-.32-1.65-2.9-4.26-4.84-4.65l-23.38-4.62c-9.39-1.86-16.31-8.37-17.84-17.11s2.18-18.27,10.71-23.27c11.23-6.58,25.68-6.95,37.7-1.73,8.84,3.84,14.61,11.84,15.01,21.45l-18.93.04c-.17-5.16-2.52-9.06-7.51-9.9-5.78-.98-17.94-1.05-17.87,6.44.1,11.41,33.62,4.24,44.11,20.38,7.84,12.07,1.92,28.7-12.01,33.73Z"/>
  <polygon points="117.86 564.17 106.19 544.25 164.42 510.54 195.17 563.91 117.86 564.17"/>
  <polygon points="599.73 526.72 580.83 526.84 580.81 450.67 599.67 450.55 599.73 526.72"/>
  <polygon points="599.73 443.4 580.92 443.47 580.77 424.98 599.59 424.77 599.73 443.4"/>
</svg>