<?xml version="1.0" encoding="UTF-8"?>
<svg id="Layer_1" xmlns="http://www.w3.org/2000/svg" version="1.1" viewBox="0 0 1000 1000">
  <!-- Generator: Adobe Illustrator 30.1.0, SVG Export Plug-In . SVG Version: 2.1.1 Build 136)  -->
  <path d="M276.51,594.28c-14.45,6.71-25.65,6.16-36.66-6.3-22.29-25.21-35.18-58.4-31.62-92.29,1.69-16.1,9.45-30.32,22.23-39.56,13.91-10.07,30.57-11.71,46.06-4.74,13.22,5.94,15.72,5.39,29.56-.65,21.12-9.22,46.22-3.63,59.77,16.01-14.32,9.03-22.83,24.14-21.7,40.75s10.88,30.53,26.9,37.61c-5.29,16.64-14.1,30.63-25.04,43.24-8.93,10.3-21.87,12.97-34.25,6.98-11.29-5.77-23.51-6.49-35.26-1.04Z"/>
  <path d="M525.13,598.02l-15.35-.07v-93.7s-.69-19.83-.69-19.83l13.95.03.91,11.81c10.65-13.8,29.49-18.55,44.71-9.07,24.27,15.13,23.33,59.55-.46,74.36-13.92,8.67-30.5,7.21-42.78-4.96l-.28,41.43ZM546.22,554.61c8.53.25,15.88-3.19,19.77-10.26,7-12.71,7.08-28.91-1.24-41.05-5.22-7.6-14.58-9.96-23.55-7.45-7.05,1.98-14.13,8.9-15.39,17.74-.89,6.23-.58,12.75-.66,19.19-.14,11.69,8.65,21.46,21.07,21.82Z"/>
  <path d="M615.84,597.98h-15.5s-.04-113.37-.04-113.37l13.39-.31.68,12.63c7.89-10.31,19-15.84,31.76-14.41,11.94,1.33,22.24,9.25,27.13,21.02,9.42,22.7,2.39,55.34-23.78,62.24-12.36,3.26-25.18.15-33.54-10.34l-.09,42.54ZM659.35,539.22c3.3-9.5,3.32-19.64.16-28.66-3.6-10.28-12.49-16.61-23.17-15.57-9.34.91-17.51,7.94-19.75,18.14-1.01,4.6-.46,10.04-.86,14.99-1.02,12.31,5.16,23.31,16.91,25.91s22.56-2.84,26.72-14.81Z"/>
  <path d="M471.29,530.1h-38.99s-11.65,35-11.65,35l-15.62-.13,38.09-112.01,18.03.13,38.08,111.63-15.91.55-12.03-35.16ZM467.96,518.08l-16.35-49.17-16.04,49.32,32.38-.14Z"/>
  <path d="M785.6,550.79l2.58,10.9c-9.83,4.25-20.88,5.74-31.66,4.96-24.24-1.75-37.59-22.89-35.05-45.69,1.1-9.81,3.96-18.96,10.62-26.55,10.43-11.88,27.91-15.58,42.32-8.71,15.32,7.31,19.49,25.2,17.48,42l-55.49.06c-1.03,15.61,10.87,27.38,26.37,26.91,7.87-.24,14.15-.9,22.83-3.88ZM777.49,516.44c.65-8.78-2.77-17.81-10.93-21.19-4.83-2-10.88-1.34-16.01-.55-8.07,4.6-13.31,11.86-14.04,21.73h40.98Z"/>
  <polygon points="706.48 564.87 691.7 564.95 691.69 447.22 706.47 447.2 706.48 564.87"/>
  <path d="M329.07,398.21c3.51,22.24-16.5,47.58-40.05,47.08-3.99-22.08,17.7-46.18,40.05-47.08Z"/>
</svg>