<?xml version="1.0" encoding="UTF-8"?>
<svg id="Layer_1" xmlns="http://www.w3.org/2000/svg" version="1.1" viewBox="0 0 1000 1000">
  <!-- Generator: Adobe Illustrator 30.1.0, SVG Export Plug-In . SVG Version: 2.1.1 Build 136)  -->
  <defs>
    <style>
      .st0 {
        fill: #fff;
      }
    </style>
  </defs>
  <path d="M895.74,509.34l-.07,37.26-22.01.13-.12-50c0-3.71-2.37-8.24-5.08-9.64-3.43-1.78-8.33-1.43-11.82,1.14-6.44,4.74-9.82,13.35-9.89,21.65l-.29,36.84-21.5.04v-79c10.55-.63,18.56-1.99,21.75,9.03,8.27-9.76,20.82-13.77,33.01-9.43,5.58,1.98,9.29,6.33,12.55,11.62,10.21-13.4,28.67-17.87,42.53-8.44,6.46,4.4,9.59,13.31,9.62,21.19l.21,54.83c-7.68.48-21.9,1.84-21.95-8.97l-.21-41.84c-.02-3.02-1.73-7.44-4.25-8.63-5.59-2.63-11.65-.39-15.64,4.01-4.17,4.59-6.82,11.4-6.83,18.22Z"/>
  <path d="M545.14,570.13l4.6-12.08c3.96-10.4,14.66,2.27,31.98-1.85,7.72-1.84,12.75-8.33,11.54-16.71-9.77,6.28-20.85,7.39-32.44,2.98-21.3-8.11-26.89-36.74-18.62-56.56,4.82-11.56,14.79-18.86,27.11-20.39,9.78-1.21,18.97,1.18,26.55,6.92,2.17-2.89,5.41-5.4,8.52-5.39l12.09.07-.17,75.66c-.03,15.14-10.16,27.12-24.02,31.8-15.67,5.29-31.69,3.31-47.14-4.45ZM591.14,517.99c3.89-8.07,4.38-18.85-.55-26.56-5.07-7.94-18.69-8.19-24.4-1.01-5.74,7.22-5.23,17.39-1.96,25.31,2.36,5.71,7.49,8.82,12.73,9.22s11.38-1.16,14.18-6.96Z"/>
  <path d="M148.21,497.55c7.68,11.98,6.45,27.82-3.18,37.88-6.53,6.82-16.04,10.64-25.6,10.67l-42.49.13-.02-97.42c0-6.59,4.76-12.03,11.44-11.99l30.06.17c8.37.05,16.87,3.18,22.71,9.04,12.15,12.2,9.67,32.21-3.74,42.24,4.01,2.82,8.17,5.13,10.82,9.28ZM118.63,480.29c5.81-.88,8.18-7.16,8.52-11.14.42-4.99-1.18-10.59-6.34-12.81-2.3-.99-22.55-5.37-22.55,5.43v19.13c7.07.06,13.49.43,20.38-.61ZM118.78,527.35c7.75-.08,12.08-6.81,12.45-13.52.46-8.21-4.61-15.49-13.09-15.6l-13.72-.19c-3.29-.04-6.2,3.37-6.19,6.6l.07,22.93,20.49-.22Z"/>
  <path d="M390.33,506.35l23,40.24-21.04.07c-3.68.01-7.67-3.02-9.38-6.21l-13.61-25.47c-1.68-.8-4.76-1.16-6.68-1.09l-.12,32.87-23.07-.03v-109.85s13.95-.01,13.95-.01c5.75,0,9.16,4.41,9.17,9.89l.07,46.9c1.98.27,7.18.4,8.34-1.38l16.31-24.97,25.92.11-22.6,33.58-1.82,2.47c-.39.53,1,1.89,1.57,2.89Z"/>
  <path d="M805.71,535.66c-16.2,16.57-43.71,16.5-59.94.76-16.5-16-16.28-44.06.47-59.76,16.13-15.13,42.9-14.95,58.77.48,15.84,15.41,16.53,42.32.7,58.52ZM793.54,514.38c3.5-13.23-2.26-27.21-15.24-29.08-7.53-1.09-14.82,1.91-18.77,8.67s-4.4,14.86-1.69,22.12c3.07,8.24,10.43,12.95,18.82,12.36,7.63-.54,14.57-5.35,16.88-14.07Z"/>
  <path d="M230.92,536.04c-16.22,16.14-43.21,15.99-59.35.55s-16.52-44.39.48-60.12c16.05-14.85,42.45-14.69,58.27.39s16.91,42.94.6,59.18ZM216.4,520.34c5.36-8.63,5.04-19.25-.26-27.4-3.65-5.61-9.93-8.05-16.11-7.84s-11.54,3.22-14.8,8.74c-4.05,6.88-4.49,15.24-1.64,22.59,2.6,6.7,8.34,11.18,14.84,11.9s13.97-1.57,17.96-8Z"/>
  <path d="M319.93,536.13c-16.42,15.84-43.68,16.08-59.9.03-15.35-15.19-15.62-40.44-2.08-56.64,8.87-10.62,21.97-14.54,35.43-13.76,21.39,1.24,37.6,17.55,38.15,39.04.3,11.54-2.65,22.7-11.59,31.33ZM307.16,517.05c2.56-6.39,2.54-13.29.42-19.35-3.01-8.59-10.83-13.23-19.38-12.58-8,.61-14.66,6.45-16.63,14.87-1.7,7.29-.87,14.92,3.52,21.07,4.03,5.65,10.57,8.09,17.39,7.27,5.93-.72,11.92-4.4,14.68-11.28Z"/>
  <path d="M503.09,487.87c-11.56-4.06-23.13,4.83-23.98,16.84-.99,14.05-.3,27.42-.59,42l-22.89-.02v-79.15c8.79-.47,19.47-2.55,22.59,8.2,7.67-8.12,17.39-11.03,28.3-10.21,13.11.98,23.79,10.46,23.92,24.45l.52,56.59c-7.76.3-22.91,2.36-22.96-9.73l-.19-40.11c-.01-2.85-1.61-7.76-4.73-8.86Z"/>
  <path d="M687.28,487.76c-11.74,6.86-12.97,25.7-4.08,34.68,10.84,10.94,28.45,6.92,39.48-4.64l9.43,15.9c-16.46,17.54-44.65,20.35-63.24,4.36-17.98-15.48-18.32-44.63-1.18-60.82,21.13-19.95,57.38-11.06,59.49,3.62.69,4.82.48,8.89.3,13.83-22.55,1.35-16.37-3.7-20.78-7.32-5.4-4.42-13.53-3.05-19.43.4Z"/>
  <path d="M442.65,476.33l.1,70.4-22.61.03-.3-79.35c6.33-.52,22.8-2.01,22.81,8.93Z"/>
  <path d="M635.34,521.41c7.74-1.92,14.69,3.41,16.1,9.96,1.56,7.27-2.86,14.23-9.96,15.93s-13.89-2.57-15.78-9.28,1.74-14.65,9.65-16.61Z"/>
  <path d="M425.4,434.35c7.3-2.95,14.86.75,17.46,7.35s-.51,14.51-7.59,17.32c-6.25,2.49-13.77-.26-16.86-6.81s-.59-14.8,6.99-17.87Z"/>
  <path class="st0" d="M98.26,461.76"/>
  <path class="st0" d="M98.25,480.89"/>
</svg>