<svg width="143" height="141" viewBox="0 0 143 141" fill="none" xmlns="http://www.w3.org/2000/svg">
<path d="M140.966 2.42484C139.727 0.942993 137.841 0 135.578 0H68.6252C54.184 0 40.066 5.84655 28.9117 15.3304C17.7575 24.8142 9.6208 37.8814 7.06125 52.3496L3.93591 70.1587L0.810552 87.9677C-1.72206 102.409 1.80744 115.503 9.62081 124.987C17.4342 134.471 29.4775 140.317 43.9188 140.317H110.871C113.134 140.317 115.371 139.401 117.122 137.892C118.873 136.411 120.167 134.336 120.571 132.073L121.109 129.001L123.669 114.479L124.639 109.037L126.902 96.2391H126.875L128.249 88.4797L131.806 68.2727C132.129 66.4675 131.536 64.9048 130.405 63.908C129.273 62.9111 127.63 62.5069 125.798 62.9919L99.9595 69.7545L74.1215 76.5171C72.3163 77.0021 70.6728 76.571 69.5682 75.6011C68.5444 74.712 68.0325 73.3379 68.1672 71.7483V71.6944C68.1672 71.6944 68.1672 71.4249 68.1941 71.2902L68.6791 68.4882C68.7599 68.1649 68.8138 67.8685 68.8946 67.5452L70.6998 57.3609C70.6998 57.3609 70.6998 57.1723 70.6998 57.0645C70.6998 56.9568 70.7537 56.849 70.7806 56.7412L70.8345 56.4448H70.8615C71.6697 53.562 74.4987 51.3257 77.4355 51.3257C77.6241 51.3257 77.7588 51.3527 77.9474 51.3796C78.136 51.3796 78.3246 51.3257 78.5132 51.3257H126.552C128.815 51.3257 131.051 50.4097 132.803 48.9009C134.554 47.3921 135.847 45.3445 136.251 43.0813L138.326 31.3343L142.394 8.29834C142.798 6.03515 142.233 3.96057 141.02 2.47872L140.966 2.42484Z" fill="#E3E7FF"/>
</svg>
