<svg width="150" height="141" viewBox="0 0 150 141" fill="none" xmlns="http://www.w3.org/2000/svg">
<path d="M84.5407 51.2988H133.469C135.786 51.2988 138.076 50.3558 139.854 48.8201C141.632 47.2844 142.952 45.1828 143.383 42.8658L146.428 25.5416L149.473 8.21751C149.877 5.95433 149.311 3.90668 148.098 2.42484C146.859 0.91605 144.973 0 142.71 0H31.5984C29.3352 0 27.1259 0.91605 25.3746 2.3979C23.6234 3.87974 22.3571 5.92738 21.9529 8.19057L11.0412 70.1317L0.129381 132.073C-0.274758 134.336 0.291033 136.384 1.50345 137.866C2.71587 139.347 4.6288 140.263 6.89198 140.263H118.003C120.267 140.263 122.476 139.347 124.227 137.866C125.979 136.384 127.245 134.336 127.649 132.073L131.205 111.866L134.762 91.6589C135.085 89.8537 134.492 88.2911 133.361 87.2942C132.229 86.2973 130.586 85.8932 128.754 86.3781L102.916 93.1407L77.0776 99.9034C75.2724 100.388 73.6289 99.9572 72.5243 98.9873C71.4196 98.0174 70.8269 96.4816 71.1502 94.6765L71.9854 89.8807L72.8207 85.0849C73.0901 83.5761 73.9522 82.1751 75.1108 81.1782C76.2693 80.1813 77.7781 79.5617 79.2869 79.5617H95.2639C97.581 79.5617 99.8711 78.6187 101.649 77.0829C103.454 75.5472 104.748 73.4457 105.179 71.1286C105.583 68.8115 105.017 66.6831 103.751 65.1743C102.485 63.6655 100.545 62.6955 98.2276 62.6955H82.4661C80.8765 62.6955 79.5833 62.0489 78.7211 61.0251C77.8589 60.0013 77.4817 58.5733 77.7512 56.9837C78.0206 55.3941 78.9097 53.9931 80.1221 52.9423C81.3345 51.8915 82.8703 51.2719 84.4599 51.2719L84.5407 51.2988Z" fill="#E3E7FF"/>
</svg>
