<?xml version="1.0" encoding="UTF-8"?>
<svg id="Layer_1" xmlns="http://www.w3.org/2000/svg" version="1.1" viewBox="0 0 1000 1000">
  <!-- Generator: Adobe Illustrator 30.1.0, SVG Export Plug-In . SVG Version: 2.1.1 Build 136)  -->
  <path d="M339.43,513.17l.07-19.13,65.36.05c3.96,31.69-8.19,59.38-37.6,71.87-27.64,11.74-59.82,4.73-80.38-17.17-27.14-28.9-25.33-73.87,3.92-100.55,27.34-24.94,69.26-25.42,97.39-.36l-13.87,14.26c-20.53-18.1-49.94-17.19-69.2.23-19.6,17.73-22.34,47.58-6.85,68.55,15.93,21.55,45.41,27.48,68.5,13.42,11.05-6.73,17.98-17.77,18.58-30.95l-45.92-.23Z"/>
  <path d="M615.18,585.54l16.92-7.38c3.78,6.04,7.32,11.81,13.99,14.46,9.27,3.69,21.16,1.41,27.7-6.2,5.99-6.97,7.02-16.51,5.6-25.32-13.77,12.01-30.78,12.98-45.96,3.74-13.39-8.15-22.98-23.87-22.51-40.34.57-20.11,14.75-37.41,33.37-43.5,12.67-4.14,24.42.33,34.61,8.36l1.24-6.63,18.4.2-.38,89.56c-.06,14.92-9.22,28.8-22.15,35.02-10.26,4.93-21.98,5.29-32.72,2.81-13.14-3.03-22.65-12.56-28.1-24.8ZM674.22,545.13c9.95-11.5,9.52-28.42-.31-39.38-9.52-10.62-25.29-10.6-34.81,0-10.06,11.2-10.08,28.41-.09,39.66s25.51,10.93,35.21-.28Z"/>
  <path d="M450.95,480.06c25.97-3.87,48.6,14.16,52.32,38.75s-13.68,48.36-38.37,52.21c-24.93,3.89-48.24-12.99-52.48-37.44-4.37-25.19,12.25-49.59,38.54-53.51ZM475.74,545.69c10.93-11.35,10.6-28.88.07-39.91-10.28-10.77-26.95-10.33-36.78.82-10.08,11.43-9.57,28.77,1.27,39.54,9.87,9.8,25.43,9.94,35.44-.45Z"/>
  <path d="M549.98,480.13c25.8-4.14,48.74,13.48,52.74,38.02s-13.14,48.99-38.56,52.9c-24.52,3.76-48.05-12.9-52.26-37.86-4.13-24.48,12.04-48.88,38.08-53.06ZM576.02,544.96c10.51-11.75,9.58-29.3-1.37-39.91-9.9-9.59-25.11-9.41-34.86.32-11.12,11.11-11.23,29.22-.19,40.48,10.15,10.35,26.43,10.28,36.42-.9Z"/>
  <path d="M787.3,553.22c9.15-.9,16.21-4.77,21.17-12.53l15.02,9.89c-8.37,12.71-21.91,19.8-36.1,20.2s-28.54-6.16-37.46-18.33-11.75-28.78-5.59-44.43c4.94-12.56,16.75-24.08,31.81-27.09,24.1-4.8,41.78,11.36,48.13,33.12l-60.08,25.29c3.38,9.17,12.65,14.89,23.1,13.87ZM801.51,507.04c-5.14-8.36-12.5-10-20.15-9.05-13.06,1.62-21.46,12.19-20.61,26.15l40.76-17.11Z"/>
  <polygon points="732.24 568.09 712.19 568.19 712.2 434.08 732.22 434 732.24 568.09"/>
</svg>