<svg width="150" height="141" viewBox="0 0 150 141" fill="none" xmlns="http://www.w3.org/2000/svg">
<path d="M142.575 0H103.238C100.921 0 98.6851 0.91605 96.9068 2.42484C95.1286 3.93363 93.8354 5.98127 93.4313 8.24445L89.2012 32.2504L87.1805 43.674C86.8033 45.7756 85.6179 47.6616 83.9744 49.0356C82.3309 50.4097 80.2563 51.2719 78.1278 51.2719C75.9993 51.2719 74.2211 50.4097 73.0626 49.0356C71.904 47.6616 71.3922 45.7486 71.7424 43.674L73.7631 32.2504L77.9931 8.24445C78.3972 5.98127 77.8314 3.90668 76.5651 2.42484C75.2988 0.942993 73.4398 0 71.1497 0H31.7595C29.4424 0 27.2062 0.91605 25.428 2.42484C23.6498 3.93363 22.3565 5.98127 21.9524 8.24445L16.941 36.6689L11.9297 65.0934L11.0406 70.1317L10.1515 75.17L5.14018 103.594L0.128843 132.019C-0.275297 134.282 0.290495 136.357 1.5568 137.839C2.79616 139.32 4.73603 140.263 7.02615 140.263H46.3624C48.6795 140.263 50.9157 139.347 52.6939 137.839C54.4722 136.33 55.7654 134.282 56.1696 132.019L60.3995 108.013L67.0275 70.3742C67.4046 68.2727 68.5901 66.3867 70.2336 65.0126C71.8771 63.6385 73.9517 62.7764 76.0802 62.7764C78.2087 62.7764 79.9868 63.6385 81.1454 65.0126C82.3039 66.3867 82.8158 68.2996 82.4656 70.3742L75.8377 108.013L71.6077 132.019C71.2036 134.282 71.7693 136.357 73.0357 137.839C74.302 139.32 76.2149 140.263 78.505 140.263H117.895C120.212 140.263 122.448 139.347 124.227 137.839C126.005 136.33 127.298 134.282 127.702 132.019L132.714 103.594L137.725 75.17L138.614 70.1317L139.503 65.0934L144.514 36.6689L149.526 8.24445C149.93 5.98127 149.364 3.90668 148.098 2.42484C146.832 0.942993 144.865 0 142.575 0Z" fill="#E3E7FF"/>
</svg>
