<svg width="134" height="141" viewBox="0 0 134 141" fill="none" xmlns="http://www.w3.org/2000/svg">
<path d="M133.234 59.7049L126.849 95.9697L120.464 132.235C120.059 134.471 118.82 136.491 117.096 137.946C115.371 139.401 113.189 140.317 110.953 140.317H52.9452C20.2368 140.317 7.30437 126.657 2.53552 112.997C-2.23333 99.3375 1.18838 85.6776 1.18838 85.6776L8.00488 46.9071L14.8483 8.08279C15.2525 5.84655 16.4918 3.82586 18.2161 2.37095C19.9405 0.91605 22.1228 0 24.3591 0H64.1534C66.3896 0 68.2756 0.91605 69.4611 2.37095C70.6466 3.82586 71.2123 5.84655 70.8352 8.08279L67.7637 25.4608L64.6922 42.8388C64.2881 45.1559 64.8539 47.2843 66.1202 48.7931C67.3865 50.3019 69.3264 51.2719 71.6434 51.2719H126.283C128.6 51.2719 130.54 52.2149 131.806 53.7506C133.073 55.2863 133.638 57.3878 133.234 59.7049Z" fill="#E3E7FF"/>
</svg>
