<svg width="412" height="388" viewBox="0 0 412 388" fill="none" xmlns="http://www.w3.org/2000/svg">
<path d="M211.521 78.7301L203.093 126.594L194.665 174.458C194.132 177.41 192.496 180.077 190.22 181.997C187.944 183.917 185.064 185.126 182.112 185.126H105.551C62.3814 185.126 45.3125 167.097 39.0184 149.068C32.7242 131.039 37.2404 113.01 37.2404 113.01L46.2371 61.8391L55.2338 10.668C55.7672 7.71656 57.403 5.04951 59.6788 3.12926C61.9547 1.20901 64.835 0 67.7865 0H120.309C123.26 0 125.714 1.20901 127.314 3.12926C128.914 5.04951 129.626 7.71656 129.128 10.668L125.074 33.6043L121.02 56.5406C120.487 59.5988 121.233 62.408 122.905 64.3994C124.576 66.3908 127.136 67.671 130.195 67.671H202.311C205.369 67.671 207.929 68.9155 209.6 70.9425C211.272 72.9694 212.019 75.7432 211.485 78.8013L211.521 78.7301Z" fill="#E3E7FF"/>
<path d="M325.206 67.671H389.783C392.841 67.671 395.864 66.4263 398.211 64.3994C400.558 62.3725 402.3 59.5988 402.869 56.5406L406.887 33.6755L410.906 10.8103C411.439 7.82321 410.692 5.12066 409.092 3.16485C407.492 1.20904 404.967 0 401.98 0H255.33C252.343 0 249.427 1.20904 247.116 3.16485C244.804 5.12066 243.133 7.82321 242.599 10.8103L228.198 92.5631L213.796 174.316C213.262 177.303 214.009 180.005 215.609 181.961C217.21 183.917 219.734 185.126 222.721 185.126H369.371C372.359 185.126 375.274 183.917 377.586 181.961C379.897 180.005 381.569 177.303 382.102 174.316L386.796 147.646L391.49 120.976C391.917 118.593 391.134 116.531 389.641 115.215C388.147 113.899 385.978 113.366 383.56 114.006L349.458 122.932L315.356 131.857C312.973 132.497 310.804 131.928 309.346 130.648C307.888 129.368 307.106 127.341 307.532 124.958L308.635 118.629L309.737 112.299C310.093 110.308 311.231 108.459 312.76 107.143C314.289 105.827 316.28 105.009 318.271 105.009H339.359C342.417 105.009 345.439 103.765 347.786 101.738C350.133 99.7106 351.876 96.937 352.445 93.8788C353.014 90.8206 352.231 88.0114 350.56 86.02C348.889 83.9931 346.329 82.7485 343.27 82.7485H322.468C320.37 82.7485 318.663 81.895 317.525 80.5437C316.387 79.1925 315.889 77.3078 316.245 75.2097C316.6 73.1117 317.774 71.2625 319.374 69.8757C320.974 68.4889 323.001 67.671 325.099 67.671H325.206Z" fill="#E3E7FF"/>
<path d="M366.201 202.192H314.283C311.225 202.192 308.273 203.401 305.926 205.393C303.579 207.348 301.873 210.086 301.339 213.074L295.756 244.758L293.089 259.835C292.591 262.609 291.027 265.098 288.858 266.912C286.688 268.725 283.95 269.863 281.141 269.863C278.332 269.863 275.985 268.725 274.456 266.912C272.927 265.098 272.251 262.573 272.713 259.835L275.38 244.758L280.963 213.074C281.497 210.086 280.75 207.348 279.078 205.393C277.407 203.437 274.882 202.192 271.86 202.192H219.871C216.813 202.192 213.861 203.401 211.514 205.393C209.167 207.384 207.46 210.086 206.927 213.074L200.313 250.59L193.699 288.106L192.525 294.755L191.352 301.405L184.737 338.921L178.123 376.437C177.59 379.424 178.337 382.162 180.008 384.118C181.679 386.074 184.204 387.318 187.227 387.318H239.144C242.203 387.318 245.154 386.109 247.501 384.118C249.848 382.127 251.555 379.424 252.088 376.437L257.671 344.753L266.419 295.075C266.917 292.302 268.482 289.812 270.651 287.999C272.82 286.185 275.558 285.047 278.367 285.047C281.177 285.047 283.523 286.185 285.053 287.999C286.582 289.812 287.257 292.337 286.795 295.075L278.047 344.753L272.464 376.437C271.931 379.424 272.678 382.162 274.349 384.118C276.02 386.074 278.545 387.318 281.568 387.318H333.557C336.615 387.318 339.566 386.109 341.913 384.118C344.26 382.127 345.967 379.424 346.501 376.437L353.115 338.921L359.729 301.405L360.902 294.755L362.076 288.106L368.69 250.59L375.304 213.074C375.838 210.086 375.091 207.348 373.42 205.393C371.784 203.437 369.223 202.192 366.201 202.192Z" fill="#E3E7FF"/>
<path d="M186.054 205.393C184.418 203.437 181.929 202.192 178.942 202.192H90.5747C71.5145 202.192 52.881 209.909 38.1591 222.426C23.4371 234.943 12.698 252.19 9.31976 271.285L5.19478 294.791L1.06981 318.296C-2.27285 337.356 2.38553 354.639 12.698 367.156C23.0104 379.673 38.9058 387.39 57.9661 387.39H146.333C149.32 387.39 152.272 386.18 154.583 384.189C156.894 382.233 158.601 379.495 159.135 376.508L159.846 372.454L163.224 353.287L164.504 346.104L167.491 329.213H167.456L169.269 318.972L173.963 292.302C174.39 289.919 173.608 287.857 172.114 286.541C170.621 285.225 168.451 284.692 166.033 285.332L131.931 294.257L97.829 303.183C95.4465 303.823 93.2773 303.254 91.8193 301.974C90.468 300.8 89.7924 298.987 89.9702 296.889V296.818C89.9702 296.818 89.9702 296.462 90.0058 296.284L90.6458 292.586C90.7525 292.159 90.8237 291.768 90.9303 291.341L93.3129 277.9C93.3129 277.9 93.3129 277.651 93.3129 277.509C93.3129 277.366 93.384 277.224 93.4195 277.082L93.4907 276.691H93.5262C94.593 272.886 98.3268 269.934 102.203 269.934C102.452 269.934 102.63 269.97 102.879 270.005C103.127 270.005 103.376 269.934 103.625 269.934H167.029C170.016 269.934 172.968 268.725 175.279 266.734C177.59 264.742 179.297 262.04 179.831 259.053L182.569 243.549L187.938 213.145C188.472 210.158 187.725 207.42 186.125 205.464L186.054 205.393Z" fill="#E3E7FF"/>
</svg>
