<svg width="567" height="141" viewBox="0 0 567 141" fill="none" xmlns="http://www.w3.org/2000/svg">
<path d="M133.234 59.705L126.849 95.9698L120.464 132.235C120.059 134.471 118.82 136.492 117.096 137.946C115.371 139.401 113.189 140.317 110.953 140.317H52.9452C20.2368 140.317 7.30437 126.658 2.53552 112.998C-2.23333 99.3377 1.18838 85.6777 1.18838 85.6777L8.00488 46.9073L14.8483 8.08292C15.2525 5.84668 16.4918 3.82598 18.2161 2.37107C19.9405 0.916172 22.1228 0.00012207 24.3591 0.00012207H64.1534C66.3896 0.00012207 68.2756 0.916172 69.4611 2.37107C70.6466 3.82598 71.2123 5.84668 70.8352 8.08292L67.7637 25.4609L64.6922 42.8389C64.2881 45.156 64.8539 47.2845 66.1202 48.7933C67.3865 50.302 69.3264 51.272 71.6434 51.272H126.283C128.6 51.272 130.54 52.215 131.806 53.7507C133.073 55.2864 133.638 57.388 133.234 59.705Z" fill="#E3E7FF"/>
<path d="M219.369 51.2989H268.297C270.614 51.2989 272.904 50.3559 274.682 48.8202C276.46 47.2845 277.781 45.1829 278.212 42.8659L281.256 25.5418L284.301 8.21763C284.705 5.95445 284.139 3.90681 282.927 2.42496C281.687 0.916172 279.801 0.00012207 277.538 0.00012207H166.427C164.163 0.00012207 161.954 0.916172 160.203 2.39802C158.451 3.87986 157.185 5.92751 156.781 8.19069L145.869 70.1318L134.958 132.073C134.553 134.336 135.119 136.384 136.332 137.866C137.544 139.348 139.457 140.264 141.72 140.264H252.832C255.095 140.264 257.304 139.348 259.055 137.866C260.807 136.384 262.073 134.336 262.477 132.073L266.034 111.866L269.59 91.659C269.913 89.8539 269.321 88.2912 268.189 87.2943C267.057 86.2974 265.414 85.8933 263.582 86.3783L237.744 93.1409L211.906 99.9035C210.101 100.388 208.457 99.9574 207.352 98.9874C206.248 98.0175 205.655 96.4818 205.978 94.6766L206.814 89.8808L207.649 85.085C207.918 83.5762 208.78 82.1752 209.939 81.1783C211.097 80.1814 212.606 79.5618 214.115 79.5618H230.092C232.409 79.5618 234.699 78.6188 236.477 77.083C238.283 75.5473 239.576 73.4458 240.007 71.1287C240.411 68.8117 239.845 66.6832 238.579 65.1744C237.313 63.6656 235.373 62.6957 233.056 62.6957H217.294C215.705 62.6957 214.411 62.049 213.549 61.0252C212.687 60.0014 212.31 58.5734 212.579 56.9838C212.849 55.3942 213.738 53.9932 214.95 52.9424C216.163 51.8917 217.698 51.272 219.288 51.272L219.369 51.2989Z" fill="#E3E7FF"/>
<path d="M559.231 0.00012207H519.895C517.578 0.00012207 515.341 0.916172 513.563 2.42496C511.785 3.93375 510.492 5.98139 510.088 8.24457L505.857 32.2505L503.837 43.6742C503.46 45.7757 502.274 47.6617 500.631 49.0358C498.987 50.4098 496.913 51.272 494.784 51.272C492.656 51.272 490.877 50.4098 489.719 49.0358C488.56 47.6617 488.048 45.7487 488.399 43.6742L490.419 32.2505L494.649 8.24457C495.053 5.98139 494.488 3.90681 493.221 2.42496C491.955 0.943115 490.096 0.00012207 487.806 0.00012207H448.416C446.099 0.00012207 443.862 0.916172 442.084 2.42496C440.306 3.93375 439.013 5.98139 438.609 8.24457L433.597 36.6691L428.586 65.0936L427.697 70.1318L426.808 75.1701L421.796 103.595L416.785 132.019C416.381 134.282 416.947 136.357 418.213 137.839C419.452 139.321 421.392 140.264 423.682 140.264H463.019C465.336 140.264 467.572 139.348 469.35 137.839C471.128 136.33 472.422 134.282 472.826 132.019L477.056 108.013L483.684 70.3743C484.061 68.2728 485.246 66.3868 486.89 65.0127C488.533 63.6387 490.608 62.7765 492.736 62.7765C494.865 62.7765 496.643 63.6387 497.802 65.0127C498.96 66.3868 499.472 68.2997 499.122 70.3743L492.494 108.013L488.264 132.019C487.86 134.282 488.426 136.357 489.692 137.839C490.958 139.321 492.871 140.264 495.161 140.264H534.551C536.868 140.264 539.105 139.348 540.883 137.839C542.661 136.33 543.954 134.282 544.359 132.019L549.37 103.595L554.381 75.1701L555.27 70.1318L556.159 65.0936L561.171 36.6691L566.182 8.24457C566.586 5.98139 566.02 3.90681 564.754 2.42496C563.488 0.943115 561.521 0.00012207 559.231 0.00012207Z" fill="#E3E7FF"/>
<path d="M422.747 2.42496C421.508 0.943115 419.622 0.00012207 417.359 0.00012207H350.406C335.965 0.00012207 321.847 5.84668 310.693 15.3305C299.539 24.8143 291.402 37.8815 288.842 52.3497L285.717 70.1588L282.592 87.9679C280.059 102.409 283.589 115.503 291.402 124.987C299.215 134.471 311.259 140.317 325.7 140.317H392.653C394.916 140.317 397.152 139.401 398.903 137.893C400.655 136.411 401.948 134.336 402.352 132.073L402.891 129.002L405.45 114.479L406.42 109.037L408.683 96.2393H408.656L410.031 88.4798L413.587 68.2728C413.91 66.4676 413.318 64.905 412.186 63.9081C411.054 62.9112 409.411 62.5071 407.579 62.992L381.741 69.7546L355.903 76.5172C354.098 77.0022 352.454 76.5711 351.349 75.6012C350.326 74.7121 349.814 73.338 349.948 71.7484V71.6945C349.948 71.6945 349.948 71.4251 349.975 71.2904L350.46 68.4883C350.541 68.165 350.595 67.8686 350.676 67.5453L352.481 57.361C352.481 57.361 352.481 57.1724 352.481 57.0646C352.481 56.9569 352.535 56.8491 352.562 56.7413L352.616 56.445H352.643C353.451 53.5621 356.28 51.3259 359.217 51.3259C359.405 51.3259 359.54 51.3528 359.729 51.3797C359.917 51.3797 360.106 51.3259 360.294 51.3259H408.333C410.596 51.3259 412.833 50.4098 414.584 48.901C416.335 47.3922 417.628 45.3446 418.033 43.0814L420.107 31.3344L424.175 8.29846C424.58 6.03527 424.014 3.96069 422.801 2.47885L422.747 2.42496Z" fill="#E3E7FF"/>
</svg>
