<svg width="323" height="339" viewBox="0 0 323 339" fill="none" xmlns="http://www.w3.org/2000/svg">
<path d="M321.731 144.174L306.312 231.745L290.893 319.317C289.917 324.717 286.924 329.596 282.76 333.11C278.596 336.623 273.326 338.835 267.926 338.835H127.851C48.8675 338.835 17.6384 305.849 6.12271 272.864C-5.393 239.878 2.86968 206.892 2.86968 206.892L19.33 113.27L35.8554 19.5181C36.8313 14.1181 39.8241 9.23859 43.9879 5.72532C48.1518 2.21206 53.4217 0 58.8217 0H154.916C160.316 0 164.87 2.21206 167.733 5.72532C170.596 9.23859 171.962 14.1181 171.051 19.5181L163.634 61.4822L156.217 103.446C155.241 109.041 156.608 114.181 159.666 117.825C162.723 121.468 167.408 123.81 173.003 123.81H304.946C310.541 123.81 315.225 126.087 318.283 129.796C321.341 133.504 322.707 138.579 321.731 144.174Z" fill="#E3E7FF"/>
</svg>
