<?xml version="1.0" encoding="UTF-8"?>
<svg id="Layer_1" xmlns="http://www.w3.org/2000/svg" version="1.1" viewBox="0 0 1000 1000">
  <!-- Generator: Adobe Illustrator 30.1.0, SVG Export Plug-In . SVG Version: 2.1.1 Build 136)  -->
  <path d="M408.96,530.23c-7.33,7.13-24.79,7.35-34.81-4.12-2.55-2.92-5.45-6-7.52-9.38l-18.9-30.77-13.75,23.61c-3.46,5.94-7.5,11.38-12,16.94-8.32,10.3-27.99,11.44-36.71,2.62-17.98-18.21-8.57-62.38,11.69-80.69,11.56-10.45,27.61-11.25,39.86-1.73,4.35,3.38,8.15,7.66,12.62,11.82l13.11-12.91c1.89-1.86,6.87-4.06,9.67-4.78,23.04-5.92,39.51,19.58,44.41,39.5,2.66,10.79,3.04,22.82,1.6,33.22-.96,6.98-4.75,12.24-9.28,16.64ZM404.86,506.23c1.45-4.76-.92-11.34-1.83-19-1.27-10.69-7.26-25.43-16.27-31.22-8.97-5.77-18.42-1.54-24.1,6.17l-5.61,7.62,23.15,37.45c3.12,5.04,7.56,10.9,13.84,11.96,2.4.41,7.52-2.17,8.18-4.34l2.64-8.64ZM317.53,507.97l22.17-33.86c-3.14-6.43-13.79-17.91-21.79-18.24-14.13-.57-24.33,24.46-24.56,36.31-3.75,8.27-.28,27.87,9.5,26.99,5.57-.5,11.91-6.95,14.69-11.21Z"/>
  <path d="M529.96,532.64l-.04-65.19c-2.38,1.65-3.29,3.83-4.72,6.37l-11.78,20.95-9.45,17.12-14.57.17-9.02-15.84c-5.61-9.86-10.06-19.12-17.02-29.61l-.41,66.08c-5.75.49-10.24.51-15.38-.11v-86.28c0-1.69,2.81-4.07,4.22-4.05l14.82.28,18.87,34.23,10.88,19.94c2.3-2.9,3.74-5.56,5.52-8.77l12.68-22.87,12.57-22.66h14.96c3.31,0,3.15,3.57,3.15,6l.04,84.19c-5.02.59-9.82.64-15.31.06Z"/>
  <path d="M731.26,526.76c-12.38,8.18-11.71,8.55-27.44,8.03-3.56-.12-7.38-2.77-10.38-4.65-8.36-5.24-11.2-12.97-13.62-21.96-1.73-6.46-1.1-12.58.36-19.04,3.96-17.5,20.1-27.77,38.02-23.66,3.9.9,7.95,3.49,12.15,5.78.25-1.01,1.53-5.47,3.02-5.57,3.16-.22,8.8-.22,12.63-.16l.03,66.93c-4.78.72-9.31.75-14.55.31l-.23-6.01ZM730.27,510.62c1.14-7.72.41-15.53.47-22.93-2.54-2.58-4.99-5.28-7.79-7.46-1.88-1.46-7.13-2.88-9.47-2.44l-8.24,1.54c-9.7,5.67-13.1,17.69-10.18,27.48,2.62,8.78,7.3,14.87,17.17,14.78,6.53-.06,16.79-2.55,18.03-10.97Z"/>
  <path d="M585.3,521.18c12.43.21,14.88,1.82,26.24-6.17l8.27,8.42c-12.06,13.48-34.53,15.46-49.49,5.25-15.82-10.79-18.27-39.95-4.62-53.67,10.41-10.46,20.27-12.08,35.14-9.07,2.41.49,6.83,3.2,8.73,4.85,9.6,8.29,13.08,22.47,11.11,35.04l-48.21.17c1.37,7.22,6.32,12.29,12.83,15.18ZM605.37,494.39c1.21-8.57-3.57-15.11-11.63-16.86-9.96-2.16-20.14,4.85-21.3,16.65l32.93.22Z"/>
  <path d="M672.25,532.43c-1.11,3.58-18.75,3.72-24.08-.47-2.26-1.78-5.62-5.13-7.11-7.42-.97-1.5-2.74-5.62-2.76-7.43l-.25-37.79-13.05-.56-.14-13.24,13.14-.22.26-19.08,15.23.21.13,18.79,19.14.36.14,13.11-19.34.45.08,35.96c0,2.06,3.69,5.97,5.68,6.02l13.38.37c.28,3.39.63,7.4-.47,10.93Z"/>
</svg>