<?xml version="1.0" encoding="UTF-8"?>
<svg id="Layer_1" xmlns="http://www.w3.org/2000/svg" version="1.1" viewBox="0 0 1000 1000">
  <!-- Generator: Adobe Illustrator 30.1.0, SVG Export Plug-In . SVG Version: 2.1.1 Build 136)  -->
  <path d="M631.34,579.18c-3.76,16.57-17.69,27.76-32.78,29.52-17.13,2-32.51-7.09-39.49-21.51-7.46-15.41-4.38-34.37,8.67-45.15l19.5-16.1-12.73-12.71-24.01,19.07c-3.72-4.09-3.68-10.76.45-14.22l15.44-12.92-16.43-16.71c-16.55-16.83-13.81-44.33,5.45-57.97,17.05-12.08,39.92-8.27,52.59,7.71,12.69,16.02,10.99,40.27-5.55,53.32l-18.59,14.67,12.39,12.52,20.81-16.61c4.54,4.84,3.32,11.05-1.05,15.02l-11.14,10.14,16.14,16.21c9.29,9.33,13.41,22.13,10.33,35.71ZM575.72,499.14l19.89-15.56c12.24-9.58,13.51-27.63,4.08-39.23-9.66-11.89-26.64-14.09-38.89-4.85-11.89,8.97-15.71,26.62-5.53,38.87,6.25,7.51,13.38,13.9,20.45,20.77ZM615.65,553.31c-6.44-7.3-12.96-13.06-19.82-19.95-7.3,5.54-14.29,10.65-21.15,16.55-11.68,10.04-11.78,27.97-2.36,38.83,10.17,11.73,27.27,13.22,39.23,3.45,11.26-9.19,14.75-26.8,4.09-38.88Z"/>
  <path d="M709.13,608.3l-11.68.06-.41-43.97c-.1-10.76-9.08-17.75-19.03-17.72-10.58.03-19.53,7.58-19.61,18.81l-.32,42.92-11.82-.04.18-70.33,11.41-.38.61,9.12c6.07-7.6,14.27-10.64,23.7-10.25,10.31.43,19.05,5.18,24.06,14.82,5.39-10.38,14.86-14.9,26.01-14.88,14.95.02,27.42,10.69,27.52,26.19l.29,45.72h-11.58s-.32-43.01-.32-43.01c-.08-11.11-8.58-18.7-19.15-18.69-10.08.01-19.4,7.06-19.49,17.93l-.35,43.68Z"/>
  <polygon points="215.1 495.15 202.99 495.38 155.39 423.5 154.86 495.25 143.23 495.29 142.84 403.88 155.15 403.67 202.69 475.49 203.05 403.8 215.12 403.66 215.1 495.15"/>
  <path d="M541.24,607.82c-4.14.32-7.74.37-11.98.27l-.15-41.57-46.91-.04-.1,41.68-12.02-.12v-91.65s12-.17,12-.17l.11,40.33,46.83.03.25-40.37,11.93.16.02,91.45Z"/>
  <path d="M829.41,585.73l12.66.05c-3.53,14.84-17.05,22.92-31.91,23.04-16.01.13-29.69-9.06-33.89-24.83-2.04-7.66-2-15.96-.07-23.72,3.67-14.73,16.22-23.98,31.2-24.58,11.04-.44,21.72,2.83,28.82,11.48,6.67,8.13,8.65,18.45,6.95,29.48l-56.01.08c-.32,12.96,10.83,22.77,24,21.94,8.19-.52,15.19-4.24,18.26-12.94ZM831.46,566.87c-.26-12.18-7.64-18.65-17.29-20.71-13.74-2.79-26.75,6.59-26.9,20.92l44.19-.21Z"/>
  <path d="M302.91,458.85c.22,21.35-14.87,37.08-35.75,37.5-21.12.43-35.95-15.23-36.29-36.06s14.72-37.58,36.3-37.42c20.37.15,35.52,15.08,35.73,35.98ZM249.53,478.45c7.17,8.45,18.74,8.96,27.73,4.8,8.82-4.07,13.42-13.66,13.4-23.96-.02-10.82-5.18-20.71-14.97-24.34s-21.27-1.65-27.49,7.38c-7.22,10.48-7.25,26.01,1.32,36.11Z"/>
  <path d="M382.23,423.51v71.83s-11.81.22-11.81.22l-.77-9.28c-6.58,7.8-15.37,10.91-25.62,10.24-14.56-.95-26.27-11.88-26.35-26.95l-.26-46.02,11.95-.07.32,44.3c.08,11.41,9.6,18.7,20.47,18.37,9.89-.3,19.24-6.9,19.36-17.6l.54-45.04h12.17Z"/>
  <path d="M662.6,433.48c-11.48-.39-20.72,7.27-20.82,18.71l-.4,42.95-11.57.11-.04-70.45,11.39-.41.67,8.99c6.63-7.77,14.73-10.41,24.41-10.12,14.52.42,26.59,10.99,26.67,26.14l.23,45.73-11.57.09-.43-43.8c-.1-10.44-8.26-17.6-18.54-17.95Z"/>
  <path d="M518.32,492.07c-10.32,5.64-23.3,5.07-33.34-.3-6.77-3.62-10.81-9.59-11.44-17.48l11.93-.29c1.44,6,5.13,9.75,10.93,11.2,5.76,1.44,12.09,1.14,16.95-2.73,2.24-1.79,3.71-5.6,3.27-8.22-.47-2.83-3.39-5.78-6.53-6.77l-22-6.96c-7.59-2.4-12.58-8.98-13.13-15.73-.64-7.93,3.22-14.64,10.5-18.37,8.66-4.45,19.58-4.79,28.7-1.03,8.2,3.38,13.43,10.74,13.14,19.55l-11.4-.05c-1.03-5.34-3.55-9.01-8.4-10.75-4.7-1.69-10.38-1.63-14.98.34-3.49,1.49-5.75,4.8-5.76,8.35,0,2.93,2.77,7.3,6.34,8.47l21.89,7.17c7.14,2.34,12.38,8.09,13.08,14.44.86,7.83-2.22,15.06-9.75,19.17Z"/>
  <path d="M410.49,495.38h-12.27s.08-71.81.08-71.81l11.82-.17.66,9.91c6-7.55,12.83-11.69,22.79-11.04l.04,12.1c-6.67.13-11.88.52-16.57,4.26-3.43,2.74-6.42,8.68-6.43,14l-.13,42.75Z"/>
  <path d="M459.41,495.16c-4.21.39-7.86.37-12.05.09v-71.82s12.03.1,12.03.1v71.64Z"/>
  <path d="M450.21,396.05c4.61-1.92,9.15.42,10.5,4.03,1.66,4.42.12,9.36-4.19,11-3.88,1.48-8.42.15-10.41-3.94-1.75-3.6-.74-9.07,4.1-11.09Z"/>
  <path d="M856.79,543.69c-1.66-.76-1.96-3.07-2-5.34l-3.05,6.02-3.17-7.02c-.06,2.39-.25,4.37-1.63,6.52l-.61-10.36c1.08-.19,3.16-.31,3.45.43l1.53,4.01c-.27,1.7.29,1.16,1.27-.43.51-2.35,1.47-4.84,4.57-4.4l-.36,10.57Z"/>
  <path d="M841.71,541c.39,3.03-.84,3.08-1.56.63.04-4.04-.22-5.76-3.69-8.19l9.08-.22-2.76,2.61c-.72.68-.87,3.05-1.06,5.16Z"/>
</svg>