<?xml version="1.0" encoding="UTF-8"?>
<svg id="Layer_1" xmlns="http://www.w3.org/2000/svg" version="1.1" viewBox="0 0 1000 1000">
  <!-- Generator: Adobe Illustrator 30.1.0, SVG Export Plug-In . SVG Version: 2.1.1 Build 136)  -->
  <path d="M515.62,523.36c-6.39,20.72-24.69,32.75-45.57,33.16-25.12.49-45.61-16.32-49.25-41.29-2.19-14.99.78-30,10.28-42.04,9.25-11.72,23.07-17.25,37.9-17.43,21.53-.26,40.12,12.33,46.61,32.98,3.48,11.08,3.63,22.98.04,34.62ZM493.68,521.23c3.99-10.6,3.76-21.92-.67-31.91s-14.51-15.98-25.05-15.57-19.83,7.25-23.72,17.93c-3.56,9.76-3.33,20.82.64,30.42,4.37,10.57,13.82,16.58,24.6,16.4s20.02-6.14,24.21-17.26Z"/>
  <path d="M597.92,483.12l.03,72.29-17.27.27-2.48-7.95c-11.42,11.37-30.51,12.01-42.22.47-5.22-5.14-7.52-13.37-7.55-20.55l-.22-44.41,19.84-.11.22,40.76c.02,4.35,1.93,10.12,4.94,12.89,4.55,4.19,10.98,4.01,16.29,1.41,3.99-1.96,8.08-7.92,8.14-13.6l.42-41.42,19.88-.03Z"/>
  <path d="M377.29,467.04l-112.17-.1c-6.68,0-10.43-7.04-10.17-12.18.27-5.55,4.94-11.24,11.54-11.24l109.95-.07c6.46,1.29,10.63,5.38,10.93,11.29s-3.17,10.89-10.08,12.31Z"/>
  <path d="M654.16,538.92l-.04,16.66-20.14-.24c-9.28-.11-16.73-7.65-16.81-17.14l-.33-38.53-11.68-.33.07-16.18,11.6-.27.3-20.27,19.74.13.2,20.18,16.38.27.13,16.14-16.59.27-.04,33.74c0,2.55,2.85,5.38,5.18,5.41l12.02.16Z"/>
  <path d="M772.27,538.9l-.04,16.71-19.33-.16c-9.64-.08-17.63-7.39-17.71-17.35l-.27-38.31-11.87-.57.03-15.95,11.8-.42.33-20.17,19.67-.02.23,20.12,16.2.49.05,16.04-16.27.4-.1,33.65c0,2.5,2.79,5.32,5.17,5.36l12.11.2Z"/>
  <path d="M374.53,485.8c7.36,0,12.33,4.51,12.82,10.92s-4.24,12.45-11.36,12.45l-71.01.05c-7.09,0-12.07-5.36-12.14-11.56-.09-7.55,5.75-11.88,13.18-11.88h68.5Z"/>
  <polygon points="682.86 555.21 662.9 555.59 662.85 456.97 682.8 456.81 682.86 555.21"/>
  <path d="M321.63,551.18l-54.65.08c-7.05.01-12.1-5.33-12.09-11.57,0-6.65,5.08-11.82,12.1-11.81l54.06.06c6.31,0,11.19,5.14,11.63,10.92s-3.96,12.31-11.04,12.32Z"/>
  <polygon points="716.68 555.27 696.62 555.5 696.59 483.32 716.63 483.03 716.68 555.27"/>
  <path d="M375.56,551.23l-26.55.02c-7.08,0-11.91-5.19-12.06-11.56s4.97-11.74,11.99-11.76l26.1-.06c6.72-.01,11.81,4.58,12.31,10.85s-4.21,12.51-11.79,12.52Z"/>
  <path d="M277.55,509.08c-4.47.15-8.64.15-12.48-.09-6.27-.4-10.05-6.02-10.15-11.27-.1-5.54,3.8-11.22,10.04-11.69,4.59-.34,9.53-.33,14.05.12,6.07.61,9.58,6.28,9.51,11.57s-4.27,11.13-10.97,11.36Z"/>
  <path d="M705.52,475.07c-7.28-.64-11.39-6.84-10.39-13.14.95-5.93,6.74-10.19,13.2-9.07s10.09,5.9,9.7,11.89-5.35,10.95-12.52,10.32Z"/>
</svg>